<?xml version="1.0" encoding="UTF-8" standalone="no"?>
<!-- Created with Inkscape (http://www.inkscape.org/) -->

<svg
   xmlns:dc="http://purl.org/dc/elements/1.1/"
   xmlns:cc="http://creativecommons.org/ns#"
   xmlns:rdf="http://www.w3.org/1999/02/22-rdf-syntax-ns#"
   xmlns:svg="http://www.w3.org/2000/svg"
   xmlns="http://www.w3.org/2000/svg"
   xmlns:sodipodi="http://sodipodi.sourceforge.net/DTD/sodipodi-0.dtd"
   xmlns:inkscape="http://www.inkscape.org/namespaces/inkscape"
   width="210mm"
   height="297mm"
   viewBox="0 0 744.09448819 1052.3622047"
   id="svg2"
   version="1.1"
   inkscape:version="0.91 r13725"
   sodipodi:docname="bowtie.svg">
  <defs
     id="defs4" />
  <sodipodi:namedview
     id="base"
     pagecolor="#ffffff"
     bordercolor="#666666"
     borderopacity="1.0"
     inkscape:pageopacity="0.0"
     inkscape:pageshadow="2"
     inkscape:zoom="2.8"
     inkscape:cx="218.88593"
     inkscape:cy="402.27053"
     inkscape:document-units="px"
     inkscape:current-layer="layer1"
     showgrid="false"
     inkscape:window-width="1920"
     inkscape:window-height="1102"
     inkscape:window-x="0"
     inkscape:window-y="0"
     inkscape:window-maximized="1" />
  <metadata
     id="metadata7">
    <rdf:RDF>
      <cc:Work
         rdf:about="">
        <dc:format>image/svg+xml</dc:format>
        <dc:type
           rdf:resource="http://purl.org/dc/dcmitype/StillImage" />
      </cc:Work>
    </rdf:RDF>
  </metadata>
  <g
     inkscape:label="Layer 1"
     inkscape:groupmode="layer"
     id="layer1">
    <path
       style="fill:#ef2929;fill-rule:evenodd;stroke:#8f5902;stroke-width:1px;stroke-linecap:butt;stroke-linejoin:miter;stroke-opacity:1;fill-opacity:1"
       d="M 89.279556,497.41296 C 60.181173,478.34622 62.005437,431.46759 62.005437,400.51521 c 0,-30.95238 11.178305,-75.01794 15.152289,-79.22008 7.03083,-7.43449 52.652524,23.21349 52.652524,23.21349 l 52.72042,27.9337 c 0,0 26.60497,-14.74734 54.95882,-14.96411 19.96766,-0.15264 49.65337,14.96411 49.65337,14.96411 0,0 68.03456,-45.22163 81.10097,-51.30148 9.62792,-4.4799 31.6609,44.36056 31.8198,78.11376 0.15891,33.7532 -21.72407,108.14994 -37.88072,98.82189 l -77.14633,-44.54046 c 0,0 -22.06928,15.40475 -49.39408,15.65736 -26.88591,0.24855 -57.07107,-15.65736 -57.07107,-15.65736 0,0 -60.19349,62.94368 -89.291874,43.87693 z"
       id="path3336"
       inkscape:connector-curvature="0"
       sodipodi:nodetypes="zzsccscszscscz" />
    <g
       id="g4247">
      <path
         inkscape:export-ydpi="67.350037"
         inkscape:export-xdpi="67.350037"
         style="fill:#ef2929;fill-opacity:1;fill-rule:evenodd;stroke:#2e3436;stroke-width:2;stroke-linecap:butt;stroke-linejoin:miter;stroke-miterlimit:4;stroke-dasharray:none;stroke-opacity:1"
         d="m 141.41941,761.62547 c -11.59495,2.16512 -43.165895,-13.42157 -63.24139,-44.8267 -20.075492,-31.40516 -20.075852,-53.88588 -20.411528,-71.6447 -0.139688,-7.39018 21.872278,-12.68468 41.567975,-13.65366 19.695693,-0.96897 54.790903,0.002 54.790903,0.002 0,0 7.12569,-15.9743 31.76567,-30.00494 17.35225,-9.8808 51.5301,-4.22236 51.5301,-4.22236 0,0 4.83297,-20.09581 13.24235,-39.77005 7.06765,-16.53519 17.51104,-32.59456 21.36325,-37.93047 6.21581,-8.60988 47.9999,7.8285 68.18728,33.63758 20.18738,25.80908 25.35301,51.32042 22.46179,82.16625 -0.47622,5.08072 -23.96311,6.00259 -46.36453,7.75678 -22.45165,1.75811 -40.85096,7.24604 -40.85096,7.24604 0,0 -4.38522,22.79633 -28.10962,36.35591 -23.34332,13.34177 -52.83006,14.15764 -52.83006,14.15764 0,0 -7.98015,16.91586 -20.77766,32.81128 -11.16626,13.86931 -26.92073,26.91085 -32.32357,27.91974 z"
         id="path4217"
         inkscape:connector-curvature="0"
         sodipodi:nodetypes="szszcscsszsscscss" />
      <ellipse
         transform="matrix(0.96487297,-0.26271687,0.26271687,0.96487297,0,0)"
         ry="53.204067"
         rx="64.454071"
         cy="680.87262"
         cx="34.477234"
         id="path4219"
         style="fill:#ef2929;fill-opacity:1;stroke:#2e3436;stroke-width:2.12599993;stroke-linecap:round;stroke-linejoin:round;stroke-miterlimit:4;stroke-dasharray:none;stroke-opacity:1" />
    </g>
  </g>
</svg>
